<svg width="430" height="123" viewBox="0 0 430 123" fill="none" xmlns="http://www.w3.org/2000/svg">
<path d="M4.58151 1.53219H41.0206V11.8058H15.4169V25.1293H38.4522V35.4029H15.4169V48.7264H41.0206V59H4.58151V1.53219ZM62.0593 60.2842C57.7252 60.2842 54.1669 59.0268 51.3845 56.5119C48.602 53.9435 47.2108 50.5992 47.2108 46.4791C47.2108 43.7502 47.9332 41.3423 49.3779 39.2555C50.8226 37.1687 52.8024 35.5634 55.3173 34.4397C57.8322 33.3161 60.6146 32.7542 63.6646 32.7542C67.8917 32.7542 71.5035 33.3696 74.5 34.6003V32.8345C74.5 30.5871 73.6439 28.7679 71.9316 27.3767C70.2729 25.9854 68.0255 25.2898 65.1896 25.2898C63.2633 25.2898 61.3905 25.7447 59.5712 26.6543C57.8054 27.5104 56.334 28.6608 55.1568 30.1056L48.4148 24.8083C50.3946 22.2399 52.8827 20.2601 55.8792 18.8689C58.8756 17.4776 62.1396 16.782 65.6712 16.782C71.9316 16.782 76.6938 18.2268 79.9578 21.1162C83.2218 24.0056 84.8538 28.2328 84.8538 33.7976V59H74.5V54.8264H73.8579C72.6272 56.4316 70.9952 57.7426 68.9619 58.7592C66.9821 59.7759 64.6813 60.2842 62.0593 60.2842ZM64.5475 52.0974C67.5974 52.0974 70.0053 51.1343 71.7711 49.208C73.5904 47.2282 74.5 44.9273 74.5 42.3054C71.7711 41.0212 68.9084 40.3791 65.9119 40.3791C60.4541 40.3791 57.7252 42.4125 57.7252 46.4791C57.7252 48.1378 58.3138 49.5023 59.491 50.5725C60.6681 51.5891 62.3536 52.0974 64.5475 52.0974ZM94.5292 18.0662H104.401V23.5241H105.044C106.114 21.5443 107.746 19.9658 109.94 18.7886C112.133 17.5579 114.488 16.9426 117.003 16.9426C118.822 16.9426 120.106 17.1031 120.855 17.4241V27.6977C119.518 27.1626 117.859 26.8951 115.879 26.8951C112.561 26.8951 109.913 27.9652 107.933 30.1056C106.007 32.2459 105.044 35.1621 105.044 38.8542V59H94.5292V18.0662ZM147.021 59.6421C144.987 59.6421 143.115 59.3478 141.402 58.7592C139.69 58.1171 138.299 57.261 137.229 56.1908C134.714 53.783 133.456 50.3584 133.456 45.9172V27.0556H126.313V18.0662H133.456V6.50845H143.971V18.0662H154.004V27.0556H143.971V43.9909C143.971 46.0778 144.426 47.576 145.335 48.4856C146.084 49.3418 147.369 49.7698 149.188 49.7698C150.204 49.7698 151.034 49.6361 151.676 49.3685C152.372 49.101 153.254 48.6462 154.325 48.0041V58.2776C152.024 59.1873 149.589 59.6421 147.021 59.6421ZM163.113 1.53219H173.627V16.0597L172.985 23.203H173.627C174.804 21.2767 176.517 19.725 178.764 18.5478C181.011 17.3706 183.446 16.782 186.068 16.782C191.044 16.782 194.843 18.2803 197.465 21.2767C200.14 24.2197 201.478 28.313 201.478 33.5569V59H190.964V34.841C190.964 32.2191 190.241 30.1858 188.797 28.7411C187.405 27.2964 185.533 26.574 183.178 26.574C180.396 26.574 178.095 27.6977 176.276 29.945C174.51 32.1924 173.627 34.9481 173.627 38.2121V59H163.113V1.53219ZM230.177 60.2842C225.147 60.2842 220.706 58.8662 216.853 56.0303C213.001 53.1944 210.299 49.1812 208.747 43.9909L218.94 39.9778C219.743 43.0278 221.107 45.4624 223.034 47.2817C224.96 49.101 227.368 50.0106 230.257 50.0106C232.665 50.0106 234.725 49.422 236.437 48.2449C238.15 47.0142 239.006 45.3287 239.006 43.1883C239.006 41.048 238.176 39.309 236.518 37.9713C234.912 36.5801 232.023 35.1086 227.849 33.5569L224.318 32.2727C220.626 30.9885 217.469 29.0354 214.847 26.4135C212.225 23.7381 210.914 20.3938 210.914 16.3807C210.914 13.3843 211.69 10.6553 213.242 8.19396C214.793 5.73259 216.987 3.80629 219.823 2.41508C222.659 0.970354 225.869 0.247993 229.455 0.247993C234.645 0.247993 238.738 1.47868 241.735 3.94006C244.731 6.34793 246.791 9.18386 247.915 12.4479L238.364 16.461C237.775 14.6952 236.732 13.2237 235.233 12.0466C233.789 10.8159 231.916 10.2005 229.615 10.2005C227.261 10.2005 225.308 10.7624 223.756 11.886C222.258 12.9562 221.509 14.3742 221.509 16.1399C221.509 17.8522 222.231 19.3237 223.676 20.5544C225.12 21.7315 227.501 22.882 230.819 24.0056L234.431 25.2096C239.407 26.9218 243.206 29.1959 245.828 32.0319C248.503 34.8143 249.841 38.4796 249.841 43.0278C249.841 46.7734 248.878 49.9571 246.952 52.579C245.025 55.1474 242.537 57.0737 239.487 58.3579C236.491 59.6421 233.387 60.2842 230.177 60.2842ZM274.44 59.6421C272.406 59.6421 270.534 59.3478 268.821 58.7592C267.109 58.1171 265.718 57.261 264.648 56.1908C262.133 53.783 260.875 50.3584 260.875 45.9172V27.0556H253.732V18.0662H260.875V6.50845H271.39V18.0662H281.422V27.0556H271.39V43.9909C271.39 46.0778 271.845 47.576 272.754 48.4856C273.503 49.3418 274.787 49.7698 276.607 49.7698C277.623 49.7698 278.453 49.6361 279.095 49.3685C279.79 49.101 280.673 48.6462 281.744 48.0041V58.2776C279.443 59.1873 277.008 59.6421 274.44 59.6421ZM308.342 60.2842C304.115 60.2842 300.342 59.3478 297.025 57.475C293.707 55.5487 291.112 52.9536 289.239 49.6896C287.42 46.3721 286.51 42.6532 286.51 38.5331C286.51 34.4665 287.42 30.7744 289.239 27.4569C291.112 24.1394 293.707 21.5443 297.025 19.6715C300.342 17.7452 304.115 16.782 308.342 16.782C312.515 16.782 316.261 17.7452 319.578 19.6715C322.896 21.5443 325.464 24.1394 327.284 27.4569C329.156 30.7744 330.093 34.4665 330.093 38.5331C330.093 42.6532 329.156 46.3721 327.284 49.6896C325.464 52.9536 322.896 55.5487 319.578 57.475C316.261 59.3478 312.515 60.2842 308.342 60.2842ZM308.342 50.5725C310.375 50.5725 312.248 50.0909 313.96 49.1277C315.672 48.1646 317.037 46.7734 318.053 44.9541C319.07 43.1348 319.578 40.9945 319.578 38.5331C319.578 36.1252 319.07 34.0117 318.053 32.1924C317.037 30.3731 315.672 28.9819 313.96 28.0188C312.248 27.0556 310.375 26.574 308.342 26.574C306.308 26.574 304.436 27.0556 302.723 28.0188C301.011 28.9819 299.62 30.3731 298.55 32.1924C297.533 34.0117 297.025 36.1252 297.025 38.5331C297.025 40.941 297.533 43.0813 298.55 44.9541C299.62 46.7734 301.011 48.1646 302.723 49.1277C304.436 50.0909 306.308 50.5725 308.342 50.5725ZM357.401 60.2842C353.281 60.2842 349.589 59.3746 346.325 57.5553C343.061 55.6825 340.492 53.0873 338.619 49.7698C336.8 46.4523 335.89 42.7068 335.89 38.5331C335.89 34.3595 336.8 30.6407 338.619 27.3767C340.492 24.0591 343.061 21.464 346.325 19.5912C349.589 17.7184 353.281 16.782 357.401 16.782C361.949 16.782 365.855 17.7719 369.119 19.7517C372.383 21.678 374.737 24.4337 376.182 28.0188L366.551 32.0319C364.838 28.3933 361.788 26.574 357.401 26.574C354.19 26.574 351.542 27.6709 349.455 29.8648C347.421 32.0586 346.405 34.9481 346.405 38.5331C346.405 42.1717 347.421 45.0879 349.455 47.2817C351.542 49.4755 354.19 50.5725 357.401 50.5725C361.842 50.5725 365.052 48.6462 367.032 44.7936L376.583 48.9672C374.818 52.5523 372.303 55.3347 369.039 57.3145C365.775 59.2943 361.895 60.2842 357.401 60.2842ZM384.148 1.53219H394.662V32.8345H395.224L409.912 18.0662H422.834V18.7083L407.343 33.8779L423.556 58.3579V59H411.116L399.959 41.1015L394.662 46.3186V59H384.148V1.53219Z" fill="url(#paint0_linear_18_4133)"/>
<path d="M13.0993 122.502C11.4272 122.502 9.82197 122.251 8.28361 121.749C6.77869 121.248 5.3741 120.512 4.06984 119.542C2.79902 118.539 1.67869 117.318 0.708853 115.88L2.51475 114.024C3.98623 116.164 5.62492 117.703 7.43082 118.639C9.23672 119.542 11.1597 119.993 13.1997 119.993C14.9721 119.993 16.5607 119.692 17.9652 119.09C19.3698 118.455 20.4734 117.602 21.2761 116.532C22.1121 115.429 22.5302 114.191 22.5302 112.82C22.5302 111.884 22.363 111.081 22.0285 110.412C21.7275 109.743 21.2761 109.158 20.6741 108.656C20.1056 108.155 19.4033 107.72 18.5672 107.352C17.7646 106.951 16.8449 106.6 15.8082 106.299C14.8049 105.964 13.718 105.63 12.5475 105.295C10.9423 104.827 9.50426 104.342 8.23344 103.841C6.99607 103.339 5.9259 102.737 5.02295 102.035C4.15344 101.332 3.48459 100.496 3.01639 99.5266C2.58164 98.5567 2.36426 97.3695 2.36426 95.9649C2.36426 94.5938 2.6318 93.3397 3.16689 92.2026C3.73541 91.0656 4.52131 90.079 5.52459 89.2429C6.52787 88.4069 7.68164 87.7715 8.9859 87.3367C10.3236 86.8685 11.7616 86.6344 13.3 86.6344C15.1059 86.6344 16.6777 86.902 18.0154 87.437C19.3866 87.9387 20.5905 88.6577 21.6272 89.5941C22.6639 90.5305 23.6003 91.6341 24.4364 92.9049L22.5803 94.7108C21.8446 93.5738 21.0252 92.5872 20.1223 91.7511C19.2193 90.9151 18.1993 90.2797 17.0623 89.8449C15.9587 89.3767 14.7046 89.1426 13.3 89.1426C11.6948 89.1426 10.2567 89.4436 8.9859 90.0456C7.74853 90.6141 6.76197 91.4167 6.02623 92.4534C5.29049 93.4902 4.92262 94.6774 4.92262 96.0151C4.92262 96.9515 5.08984 97.7708 5.42426 98.4731C5.79213 99.1754 6.34394 99.7941 7.07967 100.329C7.84885 100.831 8.80197 101.299 9.93902 101.734C11.1095 102.135 12.4974 102.536 14.1026 102.938C15.7413 103.339 17.2295 103.807 18.5672 104.342C19.9049 104.877 21.0587 105.513 22.0285 106.249C23.0318 106.984 23.7843 107.87 24.2859 108.907C24.821 109.944 25.0885 111.198 25.0885 112.67C25.0885 114.542 24.5702 116.231 23.5334 117.736C22.4967 119.208 21.0754 120.378 19.2695 121.248C17.4636 122.084 15.4069 122.502 13.0993 122.502ZM73.0339 122.502C70.5257 122.502 68.2181 122.067 66.1113 121.197C64.0378 120.294 62.2152 119.057 60.6434 117.485C59.105 115.88 57.9178 113.99 57.0818 111.817C56.2457 109.61 55.8277 107.202 55.8277 104.593C55.8277 101.985 56.2457 99.5934 57.0818 97.4197C57.9178 95.2125 59.105 93.3062 60.6434 91.701C62.2152 90.0957 64.0378 88.8584 66.1113 87.9888C68.2181 87.0859 70.5257 86.6344 73.0339 86.6344C75.5421 86.6344 77.8496 87.0859 79.9565 87.9888C82.0634 88.8584 83.886 90.0957 85.4244 91.701C86.9627 93.3062 88.15 95.2125 88.986 97.4197C89.8555 99.5934 90.2903 101.985 90.2903 104.593C90.2903 107.202 89.8555 109.61 88.986 111.817C88.15 113.99 86.9627 115.88 85.4244 117.485C83.886 119.057 82.0634 120.294 79.9565 121.197C77.8496 122.067 75.5421 122.502 73.0339 122.502ZM73.0339 119.993C75.1408 119.993 77.0804 119.626 78.8529 118.89C80.6588 118.121 82.2139 117.05 83.5182 115.679C84.8224 114.275 85.8257 112.636 86.528 110.763C87.2637 108.89 87.6316 106.834 87.6316 104.593C87.6316 102.352 87.2637 100.296 86.528 98.4229C85.8257 96.5167 84.8224 94.878 83.5182 93.5069C82.2139 92.1357 80.6588 91.0656 78.8529 90.2964C77.0804 89.5272 75.1408 89.1426 73.0339 89.1426C70.927 89.1426 68.9706 89.5272 67.1647 90.2964C65.3922 91.0656 63.8539 92.1357 62.5496 93.5069C61.2788 94.878 60.2755 96.5167 59.5398 98.4229C58.8375 100.296 58.4863 102.352 58.4863 104.593C58.4863 106.834 58.8375 108.89 59.5398 110.763C60.2755 112.636 61.2788 114.275 62.5496 115.679C63.8539 117.05 65.3922 118.121 67.1647 118.89C68.9706 119.626 70.927 119.993 73.0339 119.993ZM123.805 122V86.8852H126.313V119.492H143.52V122H123.805ZM188.647 122.351C186.072 122.351 183.765 121.766 181.725 120.595C179.718 119.391 178.146 117.753 177.009 115.679C175.872 113.606 175.304 111.231 175.304 108.556V86.8852H177.812V108.105C177.812 110.379 178.28 112.402 179.216 114.174C180.153 115.947 181.44 117.335 183.079 118.338C184.718 119.341 186.574 119.843 188.647 119.843C190.821 119.843 192.744 119.341 194.416 118.338C196.088 117.335 197.393 115.947 198.329 114.174C199.299 112.402 199.784 110.379 199.784 108.105V86.8852H202.242V108.556C202.242 111.231 201.656 113.606 200.486 115.679C199.315 117.753 197.71 119.391 195.67 120.595C193.63 121.766 191.289 122.351 188.647 122.351ZM244.777 122V89.3934H234.494V86.8852H257.92V89.3934H247.285V122H244.777ZM288.149 122V119.492H293.818V89.3934H288.149V86.8852H301.994V89.3934H296.326V119.492H301.994V122H288.149ZM349.974 122.502C347.466 122.502 345.158 122.067 343.051 121.197C340.978 120.294 339.155 119.057 337.584 117.485C336.045 115.88 334.858 113.99 334.022 111.817C333.186 109.61 332.768 107.202 332.768 104.593C332.768 101.985 333.186 99.5934 334.022 97.4197C334.858 95.2125 336.045 93.3062 337.584 91.701C339.155 90.0957 340.978 88.8584 343.051 87.9888C345.158 87.0859 347.466 86.6344 349.974 86.6344C352.482 86.6344 354.79 87.0859 356.897 87.9888C359.004 88.8584 360.826 90.0957 362.365 91.701C363.903 93.3062 365.09 95.2125 365.926 97.4197C366.796 99.5934 367.23 101.985 367.23 104.593C367.23 107.202 366.796 109.61 365.926 111.817C365.09 113.99 363.903 115.88 362.365 117.485C360.826 119.057 359.004 120.294 356.897 121.197C354.79 122.067 352.482 122.502 349.974 122.502ZM349.974 119.993C352.081 119.993 354.021 119.626 355.793 118.89C357.599 118.121 359.154 117.05 360.458 115.679C361.763 114.275 362.766 112.636 363.468 110.763C364.204 108.89 364.572 106.834 364.572 104.593C364.572 102.352 364.204 100.296 363.468 98.4229C362.766 96.5167 361.763 94.878 360.458 93.5069C359.154 92.1357 357.599 91.0656 355.793 90.2964C354.021 89.5272 352.081 89.1426 349.974 89.1426C347.867 89.1426 345.911 89.5272 344.105 90.2964C342.332 91.0656 340.794 92.1357 339.49 93.5069C338.219 94.878 337.216 96.5167 336.48 98.4229C335.778 100.296 335.427 102.352 335.427 104.593C335.427 106.834 335.778 108.89 336.48 110.763C337.216 112.636 338.219 114.275 339.49 115.679C340.794 117.05 342.332 118.121 344.105 118.89C345.911 119.626 347.867 119.993 349.974 119.993ZM400.745 122V86.8852H403.053L427.433 118.84L426.831 120.144C426.797 119.876 426.764 119.174 426.73 118.037C426.73 116.9 426.714 115.546 426.68 113.974C426.68 112.369 426.663 110.73 426.63 109.058C426.63 107.386 426.613 105.83 426.58 104.392C426.58 102.954 426.58 101.851 426.58 101.082V86.8852H429.088V122H426.68L402.15 89.8449L402.852 88.4403C402.886 89.1092 402.919 90.0456 402.953 91.2495C402.986 92.4534 403.02 93.7744 403.053 95.2125C403.086 96.617 403.12 98.0049 403.153 99.3761C403.187 100.714 403.203 101.884 403.203 102.888C403.237 103.857 403.254 104.476 403.254 104.744V122H400.745Z" fill="black"/>
<defs>
<linearGradient id="paint0_linear_18_4133" x1="221.5" y1="23" x2="216.5" y2="214.5" gradientUnits="userSpaceOnUse">
<stop stop-color="#9ACE07"/>
<stop offset="1" stop-color="#4E6804"/>
</linearGradient>
</defs>
</svg>
