<svg width="105" height="148" viewBox="0 0 105 148" fill="none" xmlns="http://www.w3.org/2000/svg">
<path d="M47.1304 2V48.5L31.1304 38.5V17.5L47.1304 2Z" stroke="#2B8D12"/>
<path d="M1.13041 91C-0.869592 123 20.6304 139 31.6304 143V67.5L1.13041 91Z" stroke="#2B8D12"/>
<path d="M47.1304 96.5L31.6304 87V143C35.6304 145 43.6304 146.167 47.1304 146.5V96.5Z" stroke="#2B8D12"/>
<path d="M23.6304 34V73.5L31.6304 67.5V87L47.1304 96.5V48.5L23.6304 34Z" stroke="#2B8D12"/>
<path d="M6 57.5V87L23.5 73.5V44.5L6 57.5Z" stroke="#2B8D12"/>
<rect x="12.1304" y="92.5" width="4" height="4" fill="#2B8D12"/>
<rect x="18.1304" y="92.5" width="4" height="4" fill="#2B8D12"/>
<rect x="12.1304" y="98.5" width="4" height="4" fill="#2B8D12"/>
<rect x="18.1304" y="98.5" width="4" height="4" fill="#2B8D12"/>
<path d="M55 2V147C79.7379 147 104 125.394 104 83.1424C104 49.3411 71.3333 14.9636 55 2Z" fill="#9ACE07"/>
<path d="M55 2V106.5C64.5 122 97 120 103.286 94C110 56.5 76.4051 19.5956 55 2Z" fill="#88B804"/>
</svg>
