<svg width="44" height="44" viewBox="0 0 44 44" fill="none" xmlns="http://www.w3.org/2000/svg">
<g clip-path="url(#clip0_10_2790)">
<path d="M34.0654 3.92439L22.5795 0.0945518C22.2035 -0.0307035 21.7969 -0.0307035 21.4209 0.0945518L9.93321 3.92439C8.10738 4.53131 6.51921 5.69814 5.39431 7.25911C4.26941 8.82008 3.66498 10.6958 3.66687 12.6199V22.0011C3.66687 35.8666 20.5335 43.5244 21.2559 43.8434C21.4902 43.9475 21.7438 44.0013 22.0002 44.0013C22.2566 44.0013 22.5102 43.9475 22.7445 43.8434C23.4669 43.5244 40.3335 35.8666 40.3335 22.0011V12.6199C40.3353 10.6956 39.7306 8.81968 38.6054 7.25869C37.4801 5.69769 35.8915 4.531 34.0654 3.92439ZM22.0002 34.8344C21.6376 34.8344 21.2832 34.7269 20.9817 34.5254C20.6802 34.324 20.4452 34.0376 20.3064 33.7026C20.1677 33.3676 20.1314 32.999 20.2021 32.6434C20.2728 32.2878 20.4474 31.9611 20.7038 31.7047C20.9602 31.4483 21.2869 31.2737 21.6425 31.2029C21.9982 31.1322 22.3668 31.1685 22.7018 31.3073C23.0368 31.446 23.3231 31.681 23.5246 31.9825C23.726 32.284 23.8335 32.6385 23.8335 33.0011C23.8335 33.4873 23.6404 33.9536 23.2966 34.2974C22.9528 34.6412 22.4864 34.8344 22.0002 34.8344ZM25.5349 23.0222C25.0717 23.3081 24.6784 23.6941 24.384 24.1519C24.0896 24.6097 23.9015 25.1277 23.8335 25.6677C23.8335 26.1539 23.6404 26.6203 23.2966 26.9641C22.9528 27.3079 22.4864 27.5011 22.0002 27.5011C21.514 27.5011 21.0477 27.3079 20.7038 26.9641C20.36 26.6203 20.1669 26.1539 20.1669 25.6677C20.2349 24.4698 20.5994 23.3074 21.2275 22.2851C21.8557 21.2627 22.7278 20.4123 23.7657 19.8102C24.4439 19.4385 24.9867 18.8613 25.3162 18.1616C25.6456 17.4619 25.7446 16.6758 25.599 15.9162C25.4578 15.1907 25.1032 14.524 24.5806 14.0014C24.058 13.4787 23.3912 13.1241 22.6657 12.9829C22.1361 12.8851 21.5915 12.9053 21.0705 13.0418C20.5496 13.1783 20.0651 13.428 19.6516 13.7729C19.238 14.1179 18.9055 14.5497 18.6777 15.0377C18.4499 15.5257 18.3324 16.0578 18.3335 16.5964C18.3335 17.0826 18.1404 17.5489 17.7966 17.8927C17.4528 18.2366 16.9864 18.4297 16.5002 18.4297C16.014 18.4297 15.5477 18.2366 15.2038 17.8927C14.86 17.5489 14.6669 17.0826 14.6669 16.5964C14.6667 15.5253 14.9011 14.4671 15.3538 13.4963C15.8064 12.5255 16.4662 11.6657 17.2867 10.9772C18.0709 10.3216 18.9835 9.83722 19.966 9.55507C20.9484 9.27292 21.979 9.19928 22.9916 9.33885C24.0041 9.47842 24.9763 9.82813 25.8458 10.3655C26.7153 10.903 27.4628 11.6162 28.0404 12.4595C28.618 13.3028 29.013 14.2576 29.1999 15.2625C29.3868 16.2674 29.3616 17.3003 29.1258 18.2949C28.8901 19.2895 28.449 20.2238 27.8309 21.0379C27.2128 21.852 26.4314 22.5279 25.5367 23.0222H25.5349Z" fill="#374957"/>
</g>
<defs>
<clipPath id="clip0_10_2790">
<rect width="44" height="44" fill="white"/>
</clipPath>
</defs>
</svg>
