<svg width="44" height="44" viewBox="0 0 44 44" fill="none" xmlns="http://www.w3.org/2000/svg">
<g clip-path="url(#clip0_10_2687)">
<path d="M12.8332 43.8054C12.507 43.75 12.1844 43.6753 11.867 43.5818L6.6072 41.9318C4.70514 41.373 3.03475 40.2141 1.84528 38.6282C0.655821 37.0422 0.0110551 35.1142 0.00720215 33.1318V10.9998C0.0091085 9.49284 0.382489 8.00963 1.09429 6.68142C1.8061 5.35321 2.83437 4.22096 4.08809 3.3849C5.34181 2.54885 6.78232 2.03477 8.28209 1.88817C9.78186 1.74157 11.2946 1.96697 12.6865 2.54442L12.8332 2.61226V43.8054ZM37.9132 2.13926L37.8747 2.12642L32.8972 0.476424C32.3341 0.293788 31.7544 0.166682 31.1665 0.0969238V40.9106L34.9322 41.9959C36.0112 42.2586 37.1357 42.2727 38.221 42.0373C39.3063 41.8019 40.3239 41.3231 41.1971 40.637C42.0703 39.951 42.7763 39.0755 43.2619 38.0768C43.7474 37.0781 43.9997 35.9821 43.9999 34.8716V10.7724C43.9971 8.88196 43.4111 7.0384 42.3217 5.49333C41.2324 3.94826 39.6929 2.77696 37.9132 2.13926ZM27.4999 0.34809C27.4999 0.34809 16.7877 3.41526 16.4999 3.44642V43.7798C16.6832 43.7413 27.4999 40.7804 27.4999 40.7804V0.34809Z" fill="#374957"/>
</g>
<defs>
<clipPath id="clip0_10_2687">
<rect width="44" height="44" fill="white"/>
</clipPath>
</defs>
</svg>
