<svg width="44" height="44" viewBox="0 0 44 44" fill="none" xmlns="http://www.w3.org/2000/svg">
<g clip-path="url(#clip0_10_2456)">
<path d="M13.6105 38.5C14.3212 40.1342 15.4937 41.5253 16.9841 42.5024C18.4744 43.4794 20.2177 43.9999 21.9998 43.9999C23.7819 43.9999 25.5252 43.4794 27.0155 42.5024C28.5059 41.5253 29.6784 40.1342 30.3891 38.5H13.6105Z" fill="#374957"/>
<path d="M41.052 23.0064L37.8694 12.5142C36.8502 8.84454 34.6342 5.62049 31.5734 3.35399C28.5127 1.08749 24.7824 -0.0915492 20.975 0.00407826C17.1676 0.0997057 13.5013 1.46452 10.5581 3.88181C7.61497 6.29911 5.56371 9.63033 4.73001 13.3466L2.25868 23.4977C1.93021 24.8466 1.91241 26.2525 2.20663 27.6093C2.50085 28.966 3.09941 30.2382 3.95712 31.3299C4.81484 32.4215 5.9093 33.3041 7.15793 33.911C8.40655 34.5179 9.77672 34.8332 11.165 34.8332H32.2795C33.7109 34.8333 35.1223 34.4981 36.4009 33.8547C37.6794 33.2112 38.7895 32.2772 39.6422 31.1276C40.495 29.978 41.0666 28.6446 41.3114 27.2344C41.5562 25.8241 41.4674 24.3762 41.052 23.0064Z" fill="#374957"/>
</g>
<defs>
<clipPath id="clip0_10_2456">
<rect width="44" height="44" fill="white"/>
</clipPath>
</defs>
</svg>
