<svg width="44" height="44" viewBox="0 0 44 44" fill="none" xmlns="http://www.w3.org/2000/svg">
<g clip-path="url(#clip0_10_2623)">
<path d="M22 0C17.6488 0 13.3953 1.29028 9.77746 3.70767C6.15958 6.12506 3.33979 9.56099 1.67466 13.581C0.00953229 17.6009 -0.426141 22.0244 0.422734 26.292C1.27161 30.5596 3.36691 34.4796 6.44366 37.5564C9.52042 40.6331 13.4404 42.7284 17.708 43.5773C21.9756 44.4262 26.3991 43.9905 30.419 42.3254C34.439 40.6602 37.875 37.8404 40.2923 34.2225C42.7097 30.6047 44 26.3512 44 22C43.9937 16.1672 41.6738 10.5751 37.5494 6.45062C33.425 2.32619 27.8328 0.00630865 22 0V0ZM27.907 12.8333H16.093C17.6491 9.76117 19.6384 6.92846 22 4.422C24.3625 6.92775 26.3519 9.76059 27.907 12.8333ZM29.3737 16.5C29.9372 18.2796 30.2313 20.1334 30.2463 22C30.2313 23.8666 29.9372 25.7204 29.3737 27.5H14.6227C14.0592 25.7204 13.7651 23.8666 13.75 22C13.7651 20.1334 14.0592 18.2796 14.6227 16.5H29.3737ZM17.2333 4.31933C15.1207 6.90394 13.3771 9.76928 12.0523 12.8333H6.14718C8.57791 8.64679 12.5614 5.58755 17.2333 4.31933ZM3.66668 22C3.66651 20.1343 3.95152 18.2796 4.51184 16.5H10.8167C10.3414 18.2951 10.095 20.1431 10.0833 22C10.095 23.8569 10.3414 25.7049 10.8167 27.5H4.51184C3.95152 25.7204 3.66651 23.8657 3.66668 22ZM6.14718 31.1667H12.0523C13.3771 34.2307 15.1207 37.0961 17.2333 39.6807C12.5614 38.4125 8.57791 35.3532 6.14718 31.1667ZM16.093 31.1667H27.907C26.3509 34.2388 24.3616 37.0715 22 39.578C19.6375 37.0723 17.6481 34.2394 16.093 31.1667ZM26.7758 39.6807C28.8852 37.0955 30.6258 34.2302 31.9477 31.1667H37.8528C35.4243 35.3513 31.4444 38.4103 26.7758 39.6807ZM40.3333 22C40.3335 23.8657 40.0485 25.7204 39.4882 27.5H33.1833C33.6586 25.7049 33.905 23.8569 33.9167 22C33.905 20.1431 33.6586 18.2951 33.1833 16.5H39.4845C40.0461 18.2794 40.3323 20.1341 40.3333 22ZM31.9477 12.8333C30.6258 9.76981 28.8852 6.90449 26.7758 4.31933C31.4444 5.5897 35.4243 8.64869 37.8528 12.8333H31.9477Z" fill="#374957"/>
</g>
<defs>
<clipPath id="clip0_10_2623">
<rect width="44" height="44" fill="white"/>
</clipPath>
</defs>
</svg>
