<svg width="44" height="44" viewBox="0 0 44 44" fill="none" xmlns="http://www.w3.org/2000/svg">
<g clip-path="url(#clip0_10_2788)">
<path d="M34.0654 3.92439L22.5795 0.0945518C22.2035 -0.0307035 21.7969 -0.0307035 21.4209 0.0945518L9.93321 3.92439C8.10738 4.53131 6.51921 5.69814 5.39431 7.25911C4.26941 8.82008 3.66498 10.6958 3.66687 12.6199V22.0011C3.66687 35.8666 20.5335 43.5244 21.2559 43.8434C21.4902 43.9475 21.7438 44.0013 22.0002 44.0013C22.2566 44.0013 22.5102 43.9475 22.7445 43.8434C23.4669 43.5244 40.3335 35.8666 40.3335 22.0011V12.6199C40.3353 10.6956 39.7306 8.81968 38.6054 7.25869C37.4801 5.69769 35.8915 4.531 34.0654 3.92439ZM22.0002 34.8344C21.6376 34.8344 21.2832 34.7269 20.9817 34.5254C20.6802 34.324 20.4452 34.0376 20.3064 33.7026C20.1677 33.3676 20.1314 32.999 20.2021 32.6434C20.2728 32.2878 20.4474 31.9611 20.7038 31.7047C20.9602 31.4483 21.2869 31.2737 21.6425 31.2029C21.9982 31.1322 22.3668 31.1685 22.7018 31.3073C23.0368 31.446 23.3231 31.681 23.5246 31.9825C23.726 32.284 23.8335 32.6385 23.8335 33.0011C23.8335 33.4873 23.6404 33.9536 23.2966 34.2974C22.9528 34.6412 22.4864 34.8344 22.0002 34.8344ZM23.8335 25.6677C23.8335 26.1539 23.6404 26.6203 23.2966 26.9641C22.9528 27.3079 22.4864 27.5011 22.0002 27.5011C21.514 27.5011 21.0477 27.3079 20.7038 26.9641C20.36 26.6203 20.1669 26.1539 20.1669 25.6677V11.0011C20.1669 10.5148 20.36 10.0485 20.7038 9.70469C21.0477 9.36087 21.514 9.16772 22.0002 9.16772C22.4864 9.16772 22.9528 9.36087 23.2966 9.70469C23.6404 10.0485 23.8335 10.5148 23.8335 11.0011V25.6677Z" fill="#374957"/>
</g>
<defs>
<clipPath id="clip0_10_2788">
<rect width="44" height="44" fill="white"/>
</clipPath>
</defs>
</svg>
