<svg width="19" height="20" viewBox="0 0 19 20" fill="none" xmlns="http://www.w3.org/2000/svg">
<path d="M8.3608 15.4565L11.9906 11.9126C12.4947 11.3975 12.7761 10.7125 12.7761 10.0001C12.7761 9.28763 12.4947 8.60262 11.9906 8.08748L8.3608 4.54359C8.13803 4.32614 7.83588 4.20398 7.52084 4.20398C7.20579 4.20398 6.90365 4.32614 6.68088 4.54359C6.45811 4.76104 6.33296 5.05597 6.33296 5.36349C6.33296 5.67101 6.45811 5.96594 6.68088 6.18339L10.3115 9.72728C10.3857 9.79973 10.4274 9.89799 10.4274 10.0004C10.4274 10.1029 10.3857 10.2012 10.3115 10.2736L6.68088 13.8167C6.45811 14.0342 6.33296 14.3291 6.33296 14.6366C6.33296 14.9441 6.45811 15.2391 6.68088 15.4565C6.90365 15.674 7.20579 15.7961 7.52084 15.7961C7.83588 15.7961 8.13803 15.674 8.3608 15.4565Z" fill="#92A4AF"/>
</svg>
